<?xml version="1.0" standalone="no"?>
<!DOCTYPE svg PUBLIC "-//W3C//DTD SVG 20010904//EN"
 "http://www.w3.org/TR/2001/REC-SVG-20010904/DTD/svg10.dtd">
<svg version="1.0" xmlns="http://www.w3.org/2000/svg"
 width="507.000000pt" height="156.000000pt" viewBox="0 0 507.000000 156.000000"
 preserveAspectRatio="xMidYMid meet">

<g transform="translate(0.000000,156.000000) scale(0.100000,-0.100000)"
fill="#000000" stroke="none">
<path d="M1890 1085 l0 -365 40 0 40 0 0 165 0 165 130 0 130 0 0 30 0 30
-130 0 -130 0 0 140 0 140 190 0 190 0 0 30 0 30 -230 0 -230 0 0 -365z"/>
<path d="M2600 1448 c1 -2 34 -122 74 -268 l73 -265 -87 -3 c-81 -2 -88 -4
-94 -25 -11 -41 -9 -42 94 -39 112 4 107 7 130 -85 10 -42 12 -43 50 -43 22 0
40 3 40 7 0 4 -15 61 -34 127 -33 117 -75 268 -135 486 l-28 105 -42 3 c-22 2
-41 2 -41 0z"/>
<path d="M2900 1085 l0 -365 40 0 40 0 0 365 0 365 -40 0 -40 0 0 -365z"/>
<path d="M3050 1426 c0 -22 3 -23 98 -28 154 -9 200 -39 210 -137 5 -61 -19
-116 -62 -138 -21 -12 -64 -18 -138 -21 -104 -4 -108 -5 -108 -27 0 -22 4 -22
120 -27 130 -6 162 -17 182 -66 8 -22 37 -207 38 -249 0 -8 15 -13 40 -13 l40
0 -5 43 c-3 23 -9 82 -15 130 -10 93 -29 138 -67 158 -30 16 -29 29 7 64 51
49 65 146 31 220 -39 86 -107 115 -264 115 -106 0 -107 0 -107 -24z"/>
<path d="M3490 1428 c0 -11 71 -159 157 -327 86 -168 165 -323 175 -343 16
-33 23 -38 53 -38 32 0 36 4 83 88 27 48 77 139 111 203 57 108 61 120 61 182
0 37 -3 67 -7 67 -5 0 -24 -30 -44 -68 -98 -186 -183 -338 -194 -351 -11 -12
-31 21 -122 200 -232 459 -202 409 -240 409 -27 0 -33 -4 -33 -22z"/>
<path d="M4200 1085 l0 -365 40 0 40 0 0 365 0 365 -40 0 -40 0 0 -365z"/>
<path d="M2543 1320 c-6 -14 -29 -92 -53 -175 -37 -134 -102 -360 -116 -407
-4 -15 1 -18 35 -18 46 0 32 -35 125 307 l56 202 -19 58 c-17 55 -19 57 -28
33z"/>
<path d="M3491 993 l-1 -273 40 0 40 0 0 193 -1 192 -38 80 -39 80 -1 -272z"/>
</g>
</svg>
